<?xml version="1.0" encoding="utf-8"?>
<!-- Generator: Adobe Illustrator 23.0.2, SVG Export Plug-In . SVG Version: 6.00 Build 0)  -->
<svg version="1.1"
	 id="Calque_1" xmlns:cc="http://creativecommons.org/ns#" xmlns:dc="http://purl.org/dc/elements/1.1/" xmlns:inkscape="http://www.inkscape.org/namespaces/inkscape" xmlns:rdf="http://www.w3.org/1999/02/22-rdf-syntax-ns#" xmlns:sodipodi="http://sodipodi.sourceforge.net/DTD/sodipodi-0.dtd" xmlns:svg="http://www.w3.org/2000/svg"
	 xmlns="http://www.w3.org/2000/svg" xmlns:xlink="http://www.w3.org/1999/xlink" x="0px" y="0px" viewBox="0 0 870.7 215.8"
	 style="enable-background:new 0 0 870.7 215.8;" xml:space="preserve">
<style type="text/css">
	.st0{fill:#FEFEFE;}
</style>
<sodipodi:namedview  bordercolor="#666666" borderopacity="1" fit-margin-bottom="0" fit-margin-left="0" fit-margin-right="0" fit-margin-top="0" gridtolerance="10" guidetolerance="10" id="namedview77" inkscape:current-layer="g74" inkscape:cx="557.94261" inkscape:cy="-43.549985" inkscape:pagecheckerboard="true" inkscape:pageopacity="0" inkscape:pageshadow="2" inkscape:window-height="1017" inkscape:window-maximized="1" inkscape:window-width="1920" inkscape:window-x="1912" inkscape:window-y="-8" inkscape:zoom="0.31007753" objecttolerance="10" pagecolor="#ffffff" showgrid="false">
	</sodipodi:namedview>
<g id="g74" transform="translate(-8.0536872,-9.9625002)">
	<path id="path4" inkscape:connector-curvature="0" class="st0" d="M160.7,22.6c6.1-4.6,11.9-8.2,18.9-9.3
		c8.4-1.4,15.6,0.5,20.8,7.5c1.7,2.2,2.5,0.9,3.6-0.1c7.8-6.6,16.8-8.6,26.8-7.2c7.1,1,11.1,4.7,12.5,11.8c0.5,2.8,0.7,5.8,0.8,8.6
		c0.2,11.4,0.2,22.9,0.4,34.3c0.1,5.7,1.4,7.1,6.6,8.4c1.5,0.3,3.2,0.1,3.1,2.6C254,82,252,81,250.7,81c-9.9,0.1-19.6,0.1-29.5,0
		c-1.1,0-2.7,0.8-3.2-1.2c-0.4-2,1-2.3,2.4-2.8c4.3-1.3,6.2-4.1,6.1-8.7c-0.3-10.7-0.1-21.4-0.1-32.1c0-8.4-4.4-13.9-11-13.9
		c-7.4,0.1-13.1,6.3-13.1,14.3c0,10.4,0.1,20.8-0.1,31.3c-0.1,4.3,1.3,7.3,5.7,8.5c1.8,0.5,2.3,1.4,2.2,3c-0.2,2.4-2.1,1.6-3.2,1.7
		c-9,0.1-18,0.1-26.9,0c-1.2,0-2.6,0.7-3.1-1.4c-0.4-1.9,0.7-2.6,2.1-3.1c4-1.4,5.5-4.1,5.4-8.3c-0.2-11,0-22-0.1-33
		c0-8.1-4.1-12.9-10.8-12.9c-7.5-0.1-12.7,5.3-12.8,13.3c-0.1,10.5,0,21.1-0.2,31.6c-0.1,4.4,1.4,7.6,5.6,9.3
		c1.6,0.6,2.4,1.6,2.1,3.2c-0.4,1.7-1.9,1-2.9,1c-9.7,0.1-19.3,0.1-29.1,0c-1.1,0-2.7,0.7-2.9-1.5c-0.2-1.9,1-2.4,2.5-2.9
		c6.8-2.1,7.4-3,7.4-10.1c0-12.7,0-25.5,0-38.2c0-6.3-1.5-8.2-7.6-9.5c-1.5-0.3-2.3-0.6-2.3-2.3c0-2,1.2-2,2.5-2
		c7.5,0.1,15,0.1,22.6,0.1c1.9,0,2.6,0.6,2.4,2.4C160.6,18.5,160.7,20.1,160.7,22.6L160.7,22.6z"/>
	<path id="path6" inkscape:connector-curvature="0" class="st0" d="M68.3,150.2c0-8.9-0.1-16.9,0.1-25c0.1-2.9-1.1-3.3-3.5-3.3
		c-7.6,0.1-15.2,0-23-0.5c4.5-4.9,8.2-9.9,9.7-16.2c0.4-1.8,2.1-1.2,3.3-1.2c9.4,0,18.8,0.1,28.2-0.1c3-0.1,3.5,1.1,3.5,3.7
		c-0.1,29.2-0.1,58.4-0.1,87.6c0,8.1,0.9,9.4,8.7,11.4c1.9,0.5,1.8,1.4,1.9,2.7c0,1.7-1,1.9-2.2,1.9c-7.6,0-15.3-0.1-23,0
		c-2.1,0-2.4-1-2.3-2.6c0.1-1.6,0-3,0-4.6c-1.6-0.2-2.1,0.9-2.7,1.5c-8.1,7.8-17.9,8.2-27.9,5.5c-7.8-2.1-12.7-7.8-15.2-15.3
		c-3.8-11.1-4.1-22.5-0.7-33.7c5.8-18.8,26.1-25.5,42.2-14.3C65.9,148.4,66.7,149.1,68.3,150.2L68.3,150.2z M68.6,179
		c0.1-8.9-0.1-15.7-2.4-22.2c-2.1-5.9-5.5-8.3-11.2-8.4s-9.4,2.1-11.3,8.1c-3,9.8-3.1,19.8-2.3,29.9c0.4,4.8,0.9,9.5,3,13.9
		c2.1,4.3,5.8,5.9,10.3,5.8c4.2-0.1,7.6-1.1,10-5.4C68.7,193.2,68.2,185,68.6,179z"/>
	<path id="path8" inkscape:connector-curvature="0" class="st0" d="M229.1,162.8c-5.3,15.7-10.2,30.4-14.9,45
		c-0.9,2.8-2.1,3.7-5.2,3.7c-10-0.2-10,0-12.9-9.6c-4.9-15.4-9.9-30.8-14.6-46.3c-1.3-3.9-3.3-6.7-7.5-7.4c-2-0.3-2.3-1.3-2.1-2.9
		c0.1-2.1,1.8-1.5,2.9-1.5c10.8,0,21.7,0,32.5,0c1.4,0,2.8-0.5,3,2c0.2,2.4-1.3,2.2-2.9,2.5c-5.7,0.9-6.7,2.6-5.2,8.3
		c3.3,12.2,6.6,24.3,10.3,37.6c2.2-6.9,4.3-13,6.2-18.9c2.9-9.2,6-18.4,8.8-27.6c0.8-2.6,1.7-3.9,5-3.9c10.4,0.2,10.4,0.1,13.3,10.1
		c3.9,13.2,7.8,26.3,11.7,39.5c1.7-0.5,1.4-2.1,1.8-3.2c3.6-11.2,7.2-22.6,10.8-33.8c1.7-5.1,0.8-6.6-4.3-8.1c-1-0.3-2-0.6-2.9-0.7
		c-1.6-0.2-1.3-1.3-1.3-2.2c0-1.3,0.9-1.3,1.8-1.4c7.5,0,15-0.1,22.6-0.1c1.3,0,1.9,0.4,1.8,1.8c-0.1,1.2,0.3,2.3-1.5,2.6
		c-5.6,1.1-7.4,5.4-9,10.1c-5.7,16.7-11.5,33.3-17.1,50c-1,2.9-2.3,3.6-5.2,3.6c-10-0.2-10,0-13-9.5
		C237.6,189.5,233.5,176.8,229.1,162.8z"/>
	<path id="path10" inkscape:connector-curvature="0" class="st0" d="M446.3,153c2-1.5,3.2-2.4,4.6-3.5c6.8-5.6,14.7-7,23.2-6.3
		c9.7,1,14.9,7.2,15.2,18.4c0.3,11.8,0.1,23.7,0.2,35.5c0,7.4,0.5,8.2,7.8,10.1c1.5,0.4,1.9,0.8,2,2.2c0,1.6-0.8,2-2.1,2
		c-10.3,0-20.5,0-30.9,0c-1.3,0-2.2-0.2-2.4-1.8c-0.2-1.5,0.3-2.1,1.7-2.5c5.1-1.5,6.2-5.2,6-10.1c-0.3-10.4-0.1-20.8-0.1-31.3
		c0-7.8-5.2-13.3-12.4-13.2c-7.2,0-12.5,5.5-12.6,13.2c-0.1,10.5,0.1,21.1-0.2,31.6c-0.1,4.7,1.8,7.7,6,9.4c1.6,0.6,3.1,1.2,2.6,3.2
		c-0.4,2.2-2.3,1.3-3.5,1.3c-9.7,0.1-19.3,0.1-29.1,0c-1.3,0-3,0.8-3.1-1.8c-0.1-2,1.2-2.2,2.6-2.7c6.3-1.9,7-3,7-9.6
		c0-12.7,0-25.5,0-38.2c0-7.1-1.1-8.6-7.9-10c-1.9-0.4-1.9-1.4-1.9-2.6c0-1.8,1.2-1.7,2.3-1.7c7.5,0.1,15,0.2,22.6,0.1
		c1.9,0,2.6,0.6,2.4,2.5C446.2,149,446.3,150.6,446.3,153L446.3,153z"/>
	<path id="path12" inkscape:connector-curvature="0" class="st0" d="M380.3,212.9c-23.4-0.4-33.1-10.2-33.2-33.7
		c0-4.6,0.3-9.3,1.2-13.8c2.5-12.2,9.3-19.2,21.5-21.4c8-1.4,16.1-1.4,24.1,0.5c9.6,2.1,15.9,7.9,18.7,17.3
		c3.1,10.6,3.1,21.4,0.1,32.1c-3.2,11.2-11.2,16.7-22.4,18.2C387,212.6,383.6,212.7,380.3,212.9L380.3,212.9z M394.8,177.6
		c-0.3-7.2-0.2-14.5-2.4-21.4c-2.1-6.1-5.5-8.7-11.4-8.7c-6,0-9.5,2.3-11.2,8.8c-3.7,14.2-3.8,28.5-0.5,42.8
		c1.6,6.6,5.5,9.3,11.8,9.2c6.2-0.1,9.3-2.6,11.3-9.3C394.5,192.1,394.4,184.9,394.8,177.6L394.8,177.6z"/>
	<path id="path14" inkscape:connector-curvature="0" class="st0" d="M144.8,204.7c-4.1,2.4-7.3,4.8-11.1,6.4c-4.5,2-9.1,2.6-14,2.1
		c-9.1-0.9-14.5-6.2-15.5-15.2c-0.5-3.7-0.5-7.5,0.4-11.2c1.8-7.1,7.4-11.7,15.9-12.3c6.9-0.5,13.9-0.6,20.8-0.6
		c2.3,0,3.3-0.6,3.2-3.1c-0.3-4.6,0.4-9.3-0.5-13.9c-1-5.8-4.7-8.7-10.6-8.5c-5.9,0.2-8.4,2.6-9.3,8.7c-1,6.8-1,6.8-7.8,6.8
		c-7.6,0-7.9-0.4-6.7-8c0.8-4.9,3.9-7.8,8.2-9.3c11.1-3.7,22.5-4.2,33.6-0.7c7.4,2.3,10.8,8.1,10.8,16.9c0.1,12.1,0,24.3,0,36.4
		c0,6.3,0.6,7,6.5,7.8c2,0.3,3.9,0.3,3.5,3c-0.4,2.6-2.4,1.4-3.7,1.5c-6.3,0.1-12.7-0.2-19,0.2c-4.2,0.3-5.4-1.3-4.7-5
		C145,206.3,144.8,205.8,144.8,204.7L144.8,204.7z M144.4,187c0.1-8.8,0.1-8.8-7.3-8.4c-10.5,0.6-14.6,5-14,15.3
		c0.4,6.9,3.6,10.9,9.1,11.1c6.3,0.2,11-4,11.8-10.7C144.3,191.9,144.3,189.5,144.4,187L144.4,187z"/>
	<path id="path16" inkscape:connector-curvature="0" class="st0" d="M98.9,73.8c-2.3,1.5-4.2,2.6-6.3,3.7c-2.1,1.2-4.3,2.4-6.6,3.1
		c-8.1,2.7-16.3,3.3-22.8-3.1c-6.5-6.5-6.3-15-3.9-23.1c2.5-8.5,10-10.7,17.8-11.2c6.1-0.4,12.1-0.3,18.3-0.1
		c2.5,0.1,3.7-0.5,3.5-3.3c-0.3-4.3,0.1-8.7-0.4-13c-0.8-6.4-4.4-9.5-10.3-9.4c-6.4,0.1-9,2.5-9.9,9.6c-0.8,6-0.8,6.1-6.8,5.9
		c-2.5-0.1-6.6,1.6-7.4-1.1c-1.1-3.6-1-8,1.8-11.6c1.9-2.4,4.2-4,7-4.8c10.4-3.1,21.1-3.7,31.6-0.7c7.8,2.1,11.8,7.7,11.9,16.1
		c0.2,12.7,0,25.5,0.1,38.2c0,5.6,1,6.7,6.6,7.3c1.7,0.2,3.5-0.3,3.5,2.5c0,3.2-2.4,1.9-3.7,2c-6.3,0.2-12.7-0.2-19,0.2
		c-4,0.2-5.5-1-4.8-4.9C99.1,75.5,98.9,74.9,98.9,73.8L98.9,73.8z M98.7,56.6c0-2.1-0.2-3.3,0-4.6c0.7-3.8-0.7-5.4-4.6-4.6
		c-0.9,0.2-1.8,0-2.6,0.1C81,47.9,76.6,52.7,77.3,63.2c0.4,6.7,3.9,10.9,9.3,11.1c5.7,0.2,10.5-4,11.5-10.2
		C98.6,61.4,98.6,58.6,98.7,56.6z"/>
	<path id="path18" inkscape:connector-curvature="0" class="st0" d="M49.1,56.1c0,12,0.2,24,0,36c-0.3,18.6-12.3,30.1-30.4,30
		c-2.5,0-3.4-0.7-3.1-3.1c0.2-1.5,0-2.9,0-4.3c0-2.9-0.6-6,0.2-8.6c1.1-3.4,5-1.6,7.4-2.6c5-2.2,8-5.7,8.1-11.2
		c0.1-20.1,0-40.2,0.1-60.3c0-2.2-0.9-2.6-2.8-2.5c-3.4,0.1-6.9-0.2-10.4,0.1c-2.8,0.2-3.4-0.9-3.3-3.5c0.3-3.7-1.3-8.7,0.6-10.9
		c2-2.3,7-0.7,10.8-0.8c6.5-0.1,13,0.1,19.5-0.1c2.7-0.1,3.4,0.8,3.3,3.4C49,30.5,49.1,43.3,49.1,56.1z"/>
	<path id="path20" inkscape:connector-curvature="0" class="st0" d="M297.7,48.6c-6,0-11.8,0-17.8,0c-1.4,0-3-0.4-2.9,2
		c0.1,6.3,0,12.7,2.2,18.8c1.8,4.8,4.9,7.7,10.2,8c5.5,0.3,10-1.3,12.8-6.3c0.4-0.8,0.8-1.6,1.1-2.3c3-7.1,3.5-7.3,11.6-6.6
		c2.1,0.2,2.3,0.9,1.8,2.6c-2.7,8.5-8.1,14.4-17,16.3c-7.7,1.8-15.5,1.7-23.2-0.1c-11.6-2.6-16.8-11.1-18.4-22.1
		c-1.4-9.5-1.2-19,1.6-28.3c2.7-9.4,8.8-15,18.5-16.8c7-1.3,14.2-1.2,21.2,0c9.6,1.7,15.3,7.5,17.7,16.8c1.3,4.9,1.8,10,1.9,15
		c0.1,2.5-0.8,3.1-3.2,3.1C309.6,48.5,303.7,48.6,297.7,48.6L297.7,48.6z M288.6,43.1c3,0,6.1,0,9.1,0c1.5,0,2.5-0.1,2.4-2.1
		c-0.1-5.4,0.1-10.7-1.6-15.9c-1.7-5.1-4.7-7.2-10-7.2c-5,0-7.8,2.1-9.7,7c-1.1,2.9-1.4,5.9-1.5,9c-0.4,9.2-0.4,9.2,8.5,9.2
		C286.9,43.1,287.7,43.1,288.6,43.1z"/>
	<path id="path22" inkscape:connector-curvature="0" class="st0" d="M349.9,82c-5.6-0.5-11.2-1.2-16.8-1.5c-3-0.2-3.9-1.4-3.6-4.3
		c0.4-3.9,0.2-7.8,0.4-11.7c0.1-1.3-0.5-3.4,1.9-2.9c2.1,0.5,5.1-1.4,6.2,2.1c0.2,0.6,0.3,1.2,0.4,1.7c2.1,10.9,11.3,15.7,21.5,11.1
		c3.6-1.7,5.5-4.4,5.9-8.4c0.4-3.9-1.1-6.7-4.3-8.8c-4.3-2.7-9.3-3.9-14-5.8c-2.1-0.8-4.3-1.6-6.4-2.4c-7.8-3.3-11.5-9-11.4-17.6
		c0.1-8.6,4.2-14.3,11.8-17.4c12-5,24-3.2,36.1-0.1c1.9,0.5,1.7,1.7,1.7,2.9c0,3.6,0,7.2,0,10.8c0,1.8,0,3.3-2.3,2.9
		c-1.8-0.2-3.7,0.9-4.4-2.4c-2.1-10.1-9.7-14.9-18.7-12.5c-3.7,1-5.9,3.5-6.7,7.1c-1,3.6,0,6.5,2.6,9c3.2,2.9,7.1,4.3,11.2,5.5
		c3.8,1,7.5,2,11,3.8c7.3,3.8,11.3,9.7,11.1,18.1c-0.2,8.4-4.3,14.1-11.7,17.7C364.4,82.2,357.3,82.6,349.9,82L349.9,82z"/>
	<path id="path24" inkscape:connector-curvature="0" class="st0" d="M289.1,200.7c0-1.5,0.2-2.9,0-4.3c-0.6-4.1,1.1-5.2,5-4.8
		c2.4,0.2,2.9,1.2,3.3,3.3c1.9,10.8,8.8,15.1,19.5,12.5c4.6-1.2,7.4-4.2,8-8.6c0.6-4.6-1.5-7.7-5.4-9.9c-4.1-2.2-8.6-3.4-12.9-5.1
		c-2.7-1-5.4-2.1-8-3.3c-6.4-3.1-9.7-8.3-9.9-15.5c-0.2-7.4,2.2-13.3,8.7-17.2c5.5-3.3,11.5-4.5,17.9-4.7c6.9-0.2,13.8,0.9,20.5,2.7
		c2.1,0.5,2.8,1.5,2.6,3.6c-0.2,3.3,0,6.6-0.1,10c0,1.7,0.7,3.7-2.2,3.5c-2.1-0.1-4,0.4-4.7-2.9c-1.9-8.9-7.5-13-16-12.5
		c-4.5,0.3-7.6,2.3-9.1,6.7c-1.5,4.6-0.3,8,3.7,10.9c3.4,2.5,7.4,3.7,11.5,4.8c3.8,1,7.5,2.1,10.8,4.2c13,7.7,13.1,25.8,0.2,33.7
		c-5.2,3.2-11,4.4-17,4.4c-8.1,0-16.1-1-24.2-1.8c-2.1-0.2-3-1-2.7-3.2c0.3-2.1,0.1-4.3,0.1-6.5C288.9,200.7,289,200.7,289.1,200.7
		L289.1,200.7z"/>
	<rect id="rect72" x="95.2" y="104.4" class="st0" width="677.9" height="18.4"/>
</g>
<g>
	<path class="st0" d="M572.8,197.7l0,5h-28v-45.5h28v5h-21.9v15.1h17.7v4.8h-17.7v15.5H572.8z"/>
	<path class="st0" d="M584.5,175.2c0.7-0.8,1.4-1.5,2.2-2.1c0.8-0.6,1.6-1.2,2.5-1.6c0.9-0.5,1.8-0.8,2.8-1c1-0.2,2-0.4,3.2-0.4
		c1.8,0,3.3,0.3,4.7,0.9c1.3,0.6,2.5,1.4,3.4,2.5c0.9,1.1,1.6,2.4,2,3.9c0.5,1.5,0.7,3.2,0.7,5v20.5h-5.7v-20.5
		c0-2.4-0.6-4.3-1.7-5.7c-1.1-1.3-2.8-2-5.1-2c-1.7,0-3.2,0.4-4.7,1.2c-1.5,0.8-2.8,1.9-4,3.3v23.7h-5.7v-32.2h3.4
		c0.8,0,1.3,0.4,1.5,1.2L584.5,175.2z"/>
	<path class="st0" d="M624,203.2c-2.5,0-4.5-0.7-5.9-2.1c-1.4-1.4-2-3.5-2-6.1v-19.7h-3.9c-0.3,0-0.6-0.1-0.9-0.3
		c-0.2-0.2-0.4-0.5-0.4-0.9v-2.3l5.3-0.7l1.3-9.9c0.1-0.3,0.2-0.6,0.4-0.8c0.2-0.2,0.5-0.3,0.9-0.3h2.9v11.1h9.3v4.1h-9.3v19.3
		c0,1.4,0.3,2.4,1,3c0.7,0.7,1.5,1,2.5,1c0.6,0,1.1-0.1,1.5-0.2c0.4-0.2,0.8-0.3,1.1-0.5c0.3-0.2,0.6-0.4,0.8-0.5
		c0.2-0.2,0.4-0.2,0.6-0.2c0.3,0,0.6,0.2,0.8,0.5l1.7,2.7c-1,0.9-2.1,1.6-3.5,2.1C626.9,202.9,625.5,203.2,624,203.2z"/>
	<path class="st0" d="M662.9,198.2c-0.7,0.8-1.5,1.6-2.5,2.2c-1,0.6-2,1.1-3.1,1.5c-1.1,0.4-2.3,0.7-3.4,0.9
		c-1.2,0.2-2.4,0.3-3.5,0.3c-2.2,0-4.3-0.4-6.1-1.1s-3.5-1.9-4.9-3.3c-1.4-1.5-2.4-3.2-3.2-5.4c-0.8-2.1-1.1-4.6-1.1-7.4
		c0-2.2,0.3-4.3,1-6.3c0.7-1.9,1.7-3.6,3-5.1c1.3-1.4,2.9-2.6,4.7-3.4c1.9-0.8,4-1.2,6.3-1.2c1.9,0,3.7,0.3,5.4,1
		c1.6,0.6,3.1,1.6,4.3,2.8c1.2,1.2,2.1,2.7,2.8,4.5c0.7,1.8,1,3.8,1,6.1c0,0.9-0.1,1.5-0.3,1.8c-0.2,0.3-0.6,0.4-1.1,0.4h-21.5
		c0.1,2,0.3,3.8,0.8,5.3c0.5,1.5,1.2,2.8,2.1,3.8c0.9,1,1.9,1.8,3.2,2.3c1.2,0.5,2.6,0.7,4.1,0.7c1.4,0,2.6-0.2,3.7-0.5
		c1-0.3,1.9-0.7,2.7-1.1c0.7-0.4,1.4-0.7,1.9-1.1c0.5-0.3,0.9-0.5,1.3-0.5c0.5,0,0.8,0.2,1.1,0.5L662.9,198.2z M658.3,183.1
		c0-1.3-0.2-2.5-0.6-3.6c-0.4-1.1-0.9-2-1.6-2.8c-0.7-0.8-1.6-1.4-2.6-1.8c-1-0.4-2.2-0.7-3.5-0.7c-2.7,0-4.9,0.8-6.4,2.4
		c-1.6,1.6-2.6,3.8-2.9,6.6H658.3z"/>
	<path class="st0" d="M675.7,177c1-2.2,2.3-3.9,3.7-5.2c1.5-1.2,3.3-1.9,5.4-1.9c0.7,0,1.3,0.1,2,0.2c0.6,0.1,1.2,0.4,1.7,0.7
		l-0.4,4.2c-0.1,0.5-0.4,0.8-1,0.8c-0.3,0-0.7-0.1-1.3-0.2c-0.6-0.1-1.2-0.2-1.9-0.2c-1,0-1.9,0.1-2.7,0.4c-0.8,0.3-1.5,0.7-2.1,1.3
		c-0.6,0.6-1.2,1.3-1.7,2.2c-0.5,0.9-0.9,1.8-1.3,2.9v20.3h-5.7v-32.2h3.2c0.6,0,1,0.1,1.3,0.4c0.2,0.2,0.4,0.6,0.5,1.2L675.7,177z"
		/>
	<path class="st0" d="M698.8,175.5c1.4-1.7,2.9-3,4.7-4c1.8-1,3.8-1.5,6.1-1.5c1.9,0,3.5,0.4,5,1.1c1.5,0.7,2.8,1.8,3.8,3.1
		c1.1,1.4,1.9,3.1,2.4,5.2c0.6,2.1,0.9,4.4,0.9,7.1c0,2.4-0.3,4.6-1,6.6c-0.6,2-1.6,3.8-2.7,5.3c-1.2,1.5-2.7,2.7-4.4,3.5
		c-1.7,0.9-3.7,1.3-5.8,1.3c-2,0-3.7-0.3-5.1-1c-1.4-0.7-2.7-1.6-3.7-2.8v14.2h-5.7v-43.1h3.4c0.8,0,1.3,0.4,1.5,1.2L698.8,175.5z
		 M699.1,194.9c1,1.4,2.2,2.4,3.4,3c1.2,0.6,2.6,0.9,4.1,0.9c3,0,5.3-1.1,6.9-3.2c1.6-2.1,2.4-5.2,2.4-9.1c0-2.1-0.2-3.9-0.6-5.4
		s-0.9-2.7-1.6-3.7c-0.7-1-1.6-1.7-2.6-2.1s-2.2-0.7-3.5-0.7c-1.8,0-3.5,0.4-4.8,1.3c-1.4,0.8-2.7,2-3.8,3.6V194.9z"/>
	<path class="st0" d="M734.4,177c1-2.2,2.3-3.9,3.7-5.2c1.5-1.2,3.3-1.9,5.4-1.9c0.7,0,1.3,0.1,2,0.2c0.6,0.1,1.2,0.4,1.7,0.7
		l-0.4,4.2c-0.1,0.5-0.4,0.8-1,0.8c-0.3,0-0.7-0.1-1.3-0.2c-0.6-0.1-1.2-0.2-1.9-0.2c-1,0-1.9,0.1-2.7,0.4c-0.8,0.3-1.5,0.7-2.1,1.3
		c-0.6,0.6-1.2,1.3-1.7,2.2c-0.5,0.9-0.9,1.8-1.3,2.9v20.3H729v-32.2h3.2c0.6,0,1,0.1,1.3,0.4c0.2,0.2,0.4,0.6,0.5,1.2L734.4,177z"
		/>
	<path class="st0" d="M759.3,160.4c0,0.6-0.1,1.1-0.3,1.5s-0.5,0.9-0.9,1.3c-0.4,0.4-0.8,0.7-1.3,0.9c-0.5,0.2-1,0.3-1.6,0.3
		c-0.6,0-1.1-0.1-1.5-0.3c-0.5-0.2-0.9-0.5-1.3-0.9c-0.4-0.4-0.6-0.8-0.9-1.3c-0.2-0.5-0.3-1-0.3-1.5c0-0.5,0.1-1.1,0.3-1.6
		c0.2-0.5,0.5-0.9,0.9-1.3c0.4-0.4,0.8-0.7,1.3-0.9c0.5-0.2,1-0.3,1.5-0.3c0.5,0,1.1,0.1,1.6,0.3c0.5,0.2,0.9,0.5,1.3,0.9
		c0.4,0.4,0.7,0.8,0.9,1.3S759.3,159.9,759.3,160.4z M758.1,170.5v32.2h-5.7v-32.2H758.1z"/>
	<path class="st0" d="M786.1,175.8c-0.3,0.5-0.6,0.7-1.2,0.7c-0.3,0-0.7-0.1-1.1-0.3c-0.4-0.2-0.9-0.5-1.5-0.8
		c-0.6-0.3-1.3-0.5-2.1-0.8c-0.8-0.2-1.8-0.4-2.9-0.4c-1,0-1.8,0.1-2.6,0.4c-0.8,0.2-1.4,0.6-2,1s-1,0.9-1.2,1.5
		c-0.3,0.6-0.4,1.2-0.4,1.8c0,0.8,0.2,1.5,0.7,2.1c0.5,0.5,1.1,1,1.9,1.4c0.8,0.4,1.7,0.8,2.7,1.1c1,0.3,2,0.6,3.1,1
		c1,0.4,2.1,0.7,3.1,1.2c1,0.4,1.9,1,2.7,1.6s1.4,1.4,1.9,2.3c0.5,0.9,0.7,2,0.7,3.3c0,1.5-0.3,2.9-0.8,4.1
		c-0.5,1.3-1.3,2.4-2.4,3.3c-1,0.9-2.3,1.6-3.8,2.2c-1.5,0.5-3.2,0.8-5.2,0.8c-2.2,0-4.3-0.4-6.1-1.1c-1.8-0.7-3.4-1.7-4.6-2.8
		l1.3-2.2c0.2-0.3,0.4-0.5,0.6-0.6c0.2-0.1,0.5-0.2,0.9-0.2c0.4,0,0.8,0.1,1.2,0.4s0.9,0.6,1.5,1c0.6,0.4,1.3,0.7,2.2,1
		s1.9,0.4,3.2,0.4c1.1,0,2.1-0.1,2.9-0.4c0.8-0.3,1.5-0.7,2.1-1.2c0.6-0.5,1-1,1.2-1.7c0.3-0.6,0.4-1.3,0.4-2c0-0.9-0.2-1.6-0.7-2.2
		c-0.5-0.6-1.1-1.1-1.9-1.5c-0.8-0.4-1.7-0.8-2.7-1.1c-1-0.3-2-0.6-3.1-1c-1-0.3-2.1-0.7-3.1-1.2c-1-0.4-1.9-1-2.7-1.6
		c-0.8-0.7-1.4-1.5-1.9-2.4c-0.5-1-0.7-2.1-0.7-3.5c0-1.2,0.3-2.4,0.8-3.5c0.5-1.1,1.2-2.1,2.2-3c1-0.9,2.2-1.5,3.6-2.1
		c1.4-0.5,3-0.8,4.9-0.8c2.1,0,4,0.3,5.7,1c1.7,0.7,3.1,1.6,4.4,2.7L786.1,175.8z"/>
	<path class="st0" d="M821,198.2c-0.7,0.8-1.5,1.6-2.5,2.2c-1,0.6-2,1.1-3.1,1.5c-1.1,0.4-2.3,0.7-3.4,0.9c-1.2,0.2-2.4,0.3-3.5,0.3
		c-2.2,0-4.3-0.4-6.1-1.1s-3.5-1.9-4.9-3.3c-1.4-1.5-2.4-3.2-3.2-5.4c-0.8-2.1-1.1-4.6-1.1-7.4c0-2.2,0.3-4.3,1-6.3
		c0.7-1.9,1.7-3.6,3-5.1c1.3-1.4,2.9-2.6,4.7-3.4c1.9-0.8,4-1.2,6.3-1.2c1.9,0,3.7,0.3,5.4,1c1.6,0.6,3.1,1.6,4.3,2.8
		c1.2,1.2,2.1,2.7,2.8,4.5c0.7,1.8,1,3.8,1,6.1c0,0.9-0.1,1.5-0.3,1.8c-0.2,0.3-0.6,0.4-1.1,0.4h-21.5c0.1,2,0.3,3.8,0.8,5.3
		c0.5,1.5,1.2,2.8,2.1,3.8c0.9,1,1.9,1.8,3.2,2.3c1.2,0.5,2.6,0.7,4.1,0.7c1.4,0,2.6-0.2,3.7-0.5c1-0.3,1.9-0.7,2.7-1.1
		c0.7-0.4,1.4-0.7,1.9-1.1c0.5-0.3,0.9-0.5,1.3-0.5c0.5,0,0.8,0.2,1.1,0.5L821,198.2z M816.4,183.1c0-1.3-0.2-2.5-0.6-3.6
		c-0.4-1.1-0.9-2-1.6-2.8c-0.7-0.8-1.6-1.4-2.6-1.8c-1-0.4-2.2-0.7-3.5-0.7c-2.7,0-4.9,0.8-6.4,2.4c-1.6,1.6-2.6,3.8-2.9,6.6H816.4z
		"/>
	<path class="st0" d="M847.1,175.8c-0.3,0.5-0.6,0.7-1.2,0.7c-0.3,0-0.7-0.1-1.1-0.3s-0.9-0.5-1.5-0.8c-0.6-0.3-1.3-0.5-2.1-0.8
		c-0.8-0.2-1.8-0.4-2.9-0.4c-1,0-1.8,0.1-2.6,0.4c-0.8,0.2-1.4,0.6-2,1s-1,0.9-1.2,1.5c-0.3,0.6-0.4,1.2-0.4,1.8
		c0,0.8,0.2,1.5,0.7,2.1c0.5,0.5,1.1,1,1.9,1.4c0.8,0.4,1.7,0.8,2.7,1.1c1,0.3,2,0.6,3.1,1c1,0.4,2.1,0.7,3.1,1.2
		c1,0.4,1.9,1,2.7,1.6c0.8,0.6,1.4,1.4,1.9,2.3c0.5,0.9,0.7,2,0.7,3.3c0,1.5-0.3,2.9-0.8,4.1c-0.5,1.3-1.3,2.4-2.4,3.3
		c-1,0.9-2.3,1.6-3.8,2.2c-1.5,0.5-3.2,0.8-5.2,0.8c-2.2,0-4.3-0.4-6.1-1.1c-1.8-0.7-3.4-1.7-4.6-2.8l1.3-2.2
		c0.2-0.3,0.4-0.5,0.6-0.6s0.5-0.2,0.9-0.2c0.4,0,0.8,0.1,1.2,0.4s0.9,0.6,1.5,1c0.6,0.4,1.3,0.7,2.2,1c0.9,0.3,1.9,0.4,3.2,0.4
		c1.1,0,2.1-0.1,2.9-0.4c0.8-0.3,1.5-0.7,2.1-1.2c0.6-0.5,1-1,1.2-1.7c0.3-0.6,0.4-1.3,0.4-2c0-0.9-0.2-1.6-0.7-2.2
		c-0.5-0.6-1.1-1.1-1.9-1.5c-0.8-0.4-1.7-0.8-2.7-1.1c-1-0.3-2-0.6-3.1-1c-1-0.3-2.1-0.7-3.1-1.2c-1-0.4-1.9-1-2.7-1.6
		s-1.4-1.5-1.9-2.4c-0.5-1-0.7-2.1-0.7-3.5c0-1.2,0.3-2.4,0.8-3.5c0.5-1.1,1.2-2.1,2.2-3c1-0.9,2.2-1.5,3.6-2.1
		c1.4-0.5,3-0.8,4.9-0.8c2.1,0,4,0.3,5.7,1c1.7,0.7,3.1,1.6,4.4,2.7L847.1,175.8z"/>
</g>
</svg>
